<svg width="36" height="25" viewBox="0 0 36 25" fill="none" xmlns="http://www.w3.org/2000/svg">
<path fill-rule="evenodd" clip-rule="evenodd" d="M0 2H8.11722L10.1172 18H32.8828L35.1328 0H0V2ZM10.8828 8L10.1328 2H14.0605L14.4355 8H10.8828ZM11.1328 10L11.8828 16H14.9355L14.5605 10H11.1328ZM16.9395 16H20.5V10H16.5645L16.9395 16ZM22.5 16H26.0605L26.4355 10H22.5V16ZM28.0645 16H31.1172L31.8672 10H28.4395L28.0645 16ZM32.1172 8L32.8672 2H28.9395L28.5645 8H32.1172ZM26.9355 2H22.5V8H26.5605L26.9355 2ZM20.5 2H16.0645L16.4395 8H20.5V2ZM17 22.5C17 23.8807 15.8807 25 14.5 25C13.1193 25 12 23.8807 12 22.5C12 21.1193 13.1193 20 14.5 20C15.8807 20 17 21.1193 17 22.5ZM28.5 25C29.8807 25 31 23.8807 31 22.5C31 21.1193 29.8807 20 28.5 20C27.1193 20 26 21.1193 26 22.5C26 23.8807 27.1193 25 28.5 25Z" fill="#090015"/>
</svg>
