<svg width="174" height="29" viewBox="0 0 174 29" fill="none" xmlns="http://www.w3.org/2000/svg">
<circle cx="5.9375" cy="11.375" r="5.9375" fill="#090015"/>
<circle cx="6.875" cy="17.9375" r="5.625" fill="#FF00D6"/>
<circle cx="13.75" cy="13.5625" r="6.25" fill="#7000FF"/>
<path d="M27.5384 23V9.90909H30.4872V12.1335H30.6406C30.9134 11.3835 31.3651 10.7983 31.9957 10.3778C32.6264 9.9517 33.3793 9.73864 34.2543 9.73864C35.1406 9.73864 35.8878 9.95455 36.4957 10.3864C37.1094 10.8125 37.5412 11.3949 37.7912 12.1335H37.9276C38.2173 11.4062 38.706 10.8267 39.3935 10.3949C40.0866 9.95739 40.9077 9.73864 41.8565 9.73864C43.0611 9.73864 44.044 10.1193 44.8054 10.8807C45.5668 11.642 45.9474 12.7528 45.9474 14.2131V23H42.8537V14.6903C42.8537 13.8778 42.6378 13.2841 42.206 12.9091C41.7741 12.5284 41.2457 12.3381 40.6207 12.3381C39.8764 12.3381 39.294 12.571 38.8736 13.0369C38.4588 13.4972 38.2514 14.0966 38.2514 14.8352V23H35.2259V14.5625C35.2259 13.8864 35.0213 13.3466 34.6122 12.9432C34.2088 12.5398 33.6804 12.3381 33.027 12.3381C32.5838 12.3381 32.1804 12.4517 31.8168 12.679C31.4531 12.9006 31.1634 13.2159 30.9474 13.625C30.7315 14.0284 30.6236 14.5 30.6236 15.0398V23H27.5384ZM52.8445 23.2642C52.0149 23.2642 51.2678 23.1165 50.603 22.821C49.9439 22.5199 49.4212 22.0767 49.0348 21.4915C48.6541 20.9062 48.4638 20.1847 48.4638 19.3267C48.4638 18.5881 48.6001 17.9773 48.8729 17.4943C49.1456 17.0114 49.5178 16.625 49.9893 16.3352C50.4609 16.0455 50.9922 15.8267 51.5831 15.679C52.1797 15.5256 52.7962 15.4148 53.4325 15.3466C54.1996 15.267 54.8217 15.196 55.299 15.1335C55.7763 15.0653 56.1229 14.9631 56.3388 14.8267C56.5604 14.6847 56.6712 14.4659 56.6712 14.1705V14.1193C56.6712 13.4773 56.4808 12.9801 56.1001 12.6278C55.7195 12.2756 55.1712 12.0994 54.4553 12.0994C53.6996 12.0994 53.1001 12.2642 52.657 12.5938C52.2195 12.9233 51.924 13.3125 51.7706 13.7614L48.8899 13.3523C49.1172 12.5568 49.4922 11.892 50.0149 11.358C50.5376 10.8182 51.1768 10.4148 51.9325 10.1477C52.6882 9.875 53.5234 9.73864 54.4382 9.73864C55.0689 9.73864 55.6967 9.8125 56.3217 9.96023C56.9467 10.108 57.5178 10.3523 58.0348 10.6932C58.5518 11.0284 58.9666 11.4858 59.2791 12.0653C59.5973 12.6449 59.7564 13.3693 59.7564 14.2386V23H56.7905V21.2017H56.6882C56.5007 21.5653 56.2365 21.9062 55.8956 22.2244C55.5604 22.5369 55.1371 22.7898 54.6257 22.983C54.12 23.1705 53.5263 23.2642 52.8445 23.2642ZM53.6456 20.9972C54.2649 20.9972 54.8018 20.875 55.2564 20.6307C55.7109 20.3807 56.0604 20.0511 56.3047 19.642C56.5547 19.233 56.6797 18.7869 56.6797 18.304V16.7614C56.5831 16.8409 56.4183 16.9148 56.1854 16.983C55.9581 17.0511 55.7024 17.1108 55.4183 17.1619C55.1342 17.2131 54.853 17.2585 54.5746 17.2983C54.2962 17.3381 54.0547 17.3722 53.8501 17.4006C53.3899 17.4631 52.978 17.5653 52.6143 17.7074C52.2507 17.8494 51.9638 18.0483 51.7536 18.304C51.5433 18.554 51.4382 18.8778 51.4382 19.2756C51.4382 19.8438 51.6456 20.2727 52.0604 20.5625C52.4751 20.8523 53.0036 20.9972 53.6456 20.9972ZM62.8587 23V9.90909H65.8501V12.0909H65.9865C66.2251 11.3352 66.6342 10.7528 67.2138 10.3438C67.799 9.92898 68.4666 9.72159 69.2166 9.72159C69.3871 9.72159 69.5774 9.73011 69.7876 9.74716C70.0036 9.75852 70.1825 9.77841 70.3246 9.80682V12.6449C70.1939 12.5994 69.9865 12.5597 69.7024 12.5256C69.424 12.4858 69.1541 12.4659 68.8928 12.4659C68.3303 12.4659 67.8246 12.5881 67.3757 12.8324C66.9325 13.071 66.5831 13.4034 66.3274 13.8295C66.0717 14.2557 65.9439 14.7472 65.9439 15.304V23H62.8587ZM75.1868 18.892L75.1783 15.1676H75.6726L80.3771 9.90909H83.9822L78.1953 16.3523H77.5561L75.1868 18.892ZM72.3743 23V5.54545H75.4595V23H72.3743ZM80.5902 23L76.3288 17.0426L78.4084 14.8693L84.2805 23H80.5902ZM91.2947 23.2557C89.9822 23.2557 88.8487 22.983 87.8942 22.4375C86.9453 21.8864 86.2152 21.108 85.7038 20.1023C85.1925 19.0909 84.9368 17.9006 84.9368 16.5312C84.9368 15.1847 85.1925 14.0028 85.7038 12.9858C86.2209 11.9631 86.9425 11.1676 87.8686 10.5994C88.7947 10.0256 89.8828 9.73864 91.1328 9.73864C91.9396 9.73864 92.701 9.86932 93.4169 10.1307C94.1385 10.3864 94.7749 10.7841 95.326 11.3239C95.8828 11.8636 96.3203 12.5511 96.6385 13.3864C96.9567 14.2159 97.1158 15.2045 97.1158 16.3523V17.2983H86.3857V15.2188H94.1584C94.1527 14.6278 94.0249 14.1023 93.7749 13.642C93.5249 13.1761 93.1754 12.8097 92.7266 12.5426C92.2834 12.2756 91.7663 12.142 91.1754 12.142C90.5447 12.142 89.9908 12.2955 89.5135 12.6023C89.0362 12.9034 88.6641 13.3011 88.397 13.7955C88.1357 14.2841 88.0021 14.821 87.9964 15.4062V17.2216C87.9964 17.983 88.1357 18.6364 88.4141 19.1818C88.6925 19.7216 89.0817 20.1364 89.5817 20.4261C90.0817 20.7102 90.6669 20.8523 91.3374 20.8523C91.7862 20.8523 92.1925 20.7898 92.5561 20.6648C92.9197 20.5341 93.2351 20.3438 93.5021 20.0938C93.7692 19.8438 93.9709 19.5341 94.1072 19.1648L96.9879 19.4886C96.8061 20.25 96.4595 20.9148 95.9482 21.483C95.4425 22.0455 94.7947 22.483 94.005 22.7955C93.2152 23.1023 92.3118 23.2557 91.2947 23.2557ZM106.263 9.90909V12.2955H98.7372V9.90909H106.263ZM100.595 6.77273H103.68V19.0625C103.68 19.4773 103.743 19.7955 103.868 20.017C103.999 20.233 104.169 20.3807 104.379 20.4602C104.589 20.5398 104.822 20.5795 105.078 20.5795C105.271 20.5795 105.447 20.5653 105.607 20.5369C105.771 20.5085 105.896 20.483 105.982 20.4602L106.501 22.8722C106.337 22.929 106.101 22.9915 105.794 23.0597C105.493 23.1278 105.124 23.1676 104.686 23.179C103.913 23.2017 103.217 23.0852 102.598 22.8295C101.979 22.5682 101.487 22.1648 101.124 21.6193C100.766 21.0739 100.589 20.392 100.595 19.5739V6.77273ZM119.002 13.3693L116.19 13.6761C116.11 13.392 115.971 13.125 115.772 12.875C115.579 12.625 115.317 12.4233 114.988 12.2699C114.658 12.1165 114.255 12.0398 113.778 12.0398C113.136 12.0398 112.596 12.179 112.158 12.4574C111.727 12.7358 111.513 13.0966 111.519 13.5398C111.513 13.9205 111.653 14.2301 111.937 14.4688C112.227 14.7074 112.704 14.9034 113.369 15.0568L115.602 15.5341C116.84 15.8011 117.761 16.2244 118.363 16.804C118.971 17.3835 119.278 18.142 119.283 19.0795C119.278 19.9034 119.036 20.6307 118.559 21.2614C118.087 21.8864 117.431 22.375 116.59 22.7273C115.749 23.0795 114.783 23.2557 113.692 23.2557C112.09 23.2557 110.8 22.9205 109.823 22.25C108.846 21.5739 108.263 20.6335 108.076 19.429L111.085 19.1392C111.221 19.7301 111.511 20.1761 111.954 20.4773C112.397 20.7784 112.974 20.929 113.684 20.929C114.417 20.929 115.005 20.7784 115.448 20.4773C115.897 20.1761 116.121 19.804 116.121 19.3608C116.121 18.9858 115.977 18.6761 115.687 18.4318C115.403 18.1875 114.96 18 114.357 17.8693L112.124 17.4006C110.869 17.1392 109.94 16.6989 109.337 16.0795C108.735 15.4545 108.437 14.6648 108.442 13.7102C108.437 12.9034 108.656 12.2045 109.099 11.6136C109.548 11.017 110.17 10.5568 110.965 10.233C111.766 9.90341 112.69 9.73864 113.735 9.73864C115.269 9.73864 116.477 10.0653 117.357 10.7188C118.244 11.3722 118.792 12.2557 119.002 13.3693ZM130.171 17.4943V9.90909H133.256V23H130.265V20.6733H130.129C129.833 21.4062 129.347 22.0057 128.671 22.4716C128.001 22.9375 127.174 23.1705 126.191 23.1705C125.333 23.1705 124.575 22.9801 123.915 22.5994C123.262 22.2131 122.751 21.6534 122.381 20.9205C122.012 20.1818 121.827 19.2898 121.827 18.2443V9.90909H124.913V17.767C124.913 18.5966 125.14 19.2557 125.594 19.7443C126.049 20.233 126.646 20.4773 127.384 20.4773C127.839 20.4773 128.279 20.3665 128.705 20.1449C129.131 19.9233 129.481 19.5938 129.754 19.1562C130.032 18.7131 130.171 18.1591 130.171 17.4943ZM136.429 27.9091V9.90909H139.463V12.0739H139.642C139.801 11.7557 140.026 11.4176 140.315 11.0597C140.605 10.696 140.997 10.3864 141.491 10.1307C141.986 9.86932 142.616 9.73864 143.384 9.73864C144.395 9.73864 145.307 9.99716 146.119 10.5142C146.938 11.0256 147.585 11.7841 148.062 12.7898C148.545 13.7898 148.787 15.017 148.787 16.4716C148.787 17.9091 148.551 19.1307 148.08 20.1364C147.608 21.142 146.966 21.9091 146.153 22.4375C145.341 22.9659 144.42 23.2301 143.392 23.2301C142.642 23.2301 142.02 23.1051 141.526 22.8551C141.031 22.6051 140.634 22.304 140.332 21.9517C140.037 21.5937 139.807 21.2557 139.642 20.9375H139.514V27.9091H136.429ZM139.455 16.4545C139.455 17.3011 139.574 18.0426 139.812 18.679C140.057 19.3153 140.406 19.8125 140.861 20.1705C141.321 20.5227 141.878 20.6989 142.531 20.6989C143.213 20.6989 143.784 20.517 144.244 20.1534C144.705 19.7841 145.051 19.2812 145.284 18.6449C145.523 18.0028 145.642 17.2727 145.642 16.4545C145.642 15.642 145.526 14.9205 145.293 14.2898C145.06 13.6591 144.713 13.1648 144.253 12.8068C143.793 12.4489 143.219 12.2699 142.531 12.2699C141.872 12.2699 141.312 12.4432 140.852 12.7898C140.392 13.1364 140.043 13.6222 139.804 14.2472C139.571 14.8722 139.455 15.608 139.455 16.4545ZM157.224 23.2557C155.912 23.2557 154.778 22.983 153.824 22.4375C152.875 21.8864 152.145 21.108 151.634 20.1023C151.122 19.0909 150.866 17.9006 150.866 16.5312C150.866 15.1847 151.122 14.0028 151.634 12.9858C152.151 11.9631 152.872 11.1676 153.798 10.5994C154.724 10.0256 155.812 9.73864 157.062 9.73864C157.869 9.73864 158.631 9.86932 159.347 10.1307C160.068 10.3864 160.705 10.7841 161.256 11.3239C161.813 11.8636 162.25 12.5511 162.568 13.3864C162.886 14.2159 163.045 15.2045 163.045 16.3523V17.2983H152.315V15.2188H160.088C160.082 14.6278 159.955 14.1023 159.705 13.642C159.455 13.1761 159.105 12.8097 158.656 12.5426C158.213 12.2756 157.696 12.142 157.105 12.142C156.474 12.142 155.92 12.2955 155.443 12.6023C154.966 12.9034 154.594 13.3011 154.327 13.7955C154.065 14.2841 153.932 14.821 153.926 15.4062V17.2216C153.926 17.983 154.065 18.6364 154.344 19.1818C154.622 19.7216 155.011 20.1364 155.511 20.4261C156.011 20.7102 156.597 20.8523 157.267 20.8523C157.716 20.8523 158.122 20.7898 158.486 20.6648C158.849 20.5341 159.165 20.3438 159.432 20.0938C159.699 19.8438 159.901 19.5341 160.037 19.1648L162.918 19.4886C162.736 20.25 162.389 20.9148 161.878 21.483C161.372 22.0455 160.724 22.483 159.935 22.7955C159.145 23.1023 158.241 23.2557 157.224 23.2557ZM165.656 23V9.90909H168.647V12.0909H168.783C169.022 11.3352 169.431 10.7528 170.011 10.3438C170.596 9.92898 171.263 9.72159 172.013 9.72159C172.184 9.72159 172.374 9.73011 172.585 9.74716C172.8 9.75852 172.979 9.77841 173.121 9.80682V12.6449C172.991 12.5994 172.783 12.5597 172.499 12.5256C172.221 12.4858 171.951 12.4659 171.69 12.4659C171.127 12.4659 170.621 12.5881 170.173 12.8324C169.729 13.071 169.38 13.4034 169.124 13.8295C168.869 14.2557 168.741 14.7472 168.741 15.304V23H165.656Z" fill="#090015"/>
</svg>
