<svg width="25" height="25" viewBox="0 0 25 25" fill="none" xmlns="http://www.w3.org/2000/svg">
<path fill-rule="evenodd" clip-rule="evenodd" d="M11.8828 12.5481C12.0863 12.5438 12.292 12.5417 12.5 12.5417C12.708 12.5417 12.9137 12.5438 13.1172 12.5481C15.7689 12.2435 17.8182 10.0005 17.8182 7.29167C17.8182 4.376 15.444 2 12.5 2C9.556 2 7.18182 4.376 7.18182 7.29167C7.18182 10.0005 9.23114 12.2435 11.8828 12.5481ZM7.93237 12.989C6.25575 11.6529 5.18182 9.59722 5.18182 7.29167C5.18182 3.26459 8.45829 0 12.5 0C16.5417 0 19.8182 3.26459 19.8182 7.29167C19.8182 9.59722 18.7443 11.6528 17.0676 12.989C18.9965 13.4255 20.6147 14.2045 21.8836 15.4252C24.0622 17.521 25 20.7136 25 25H23C23 20.9531 22.1083 18.4165 20.4971 16.8665C18.9784 15.4055 16.6347 14.6401 13.1982 14.5506C12.9684 14.5723 12.7355 14.5833 12.5 14.5833C12.2645 14.5833 12.0316 14.5723 11.8018 14.5506C8.36534 14.6401 6.0216 15.4055 4.50295 16.8665C2.89175 18.4165 2 20.9531 2 25H0C0 20.7136 0.9378 17.521 3.11637 15.4252C4.38527 14.2045 6.00351 13.4255 7.93237 12.989Z" fill="#090015"/>
</svg>
